<?xml version="1.0" encoding="UTF-8" standalone="no"?>
<!DOCTYPE svg PUBLIC "-//W3C//DTD SVG 1.1//EN" "http://www.w3.org/Graphics/SVG/1.1/DTD/svg11.dtd">
<svg width="100%" height="100%" viewBox="0 0 140 141" version="1.1" xmlns="http://www.w3.org/2000/svg" xmlns:xlink="http://www.w3.org/1999/xlink" xml:space="preserve" xmlns:serif="http://www.serif.com/" style="fill-rule:evenodd;clip-rule:evenodd;stroke-linejoin:round;stroke-miterlimit:2;">
    <g id="Réteg_2" transform="matrix(1,0,0,1,0,-78.0307)">
        <g id="Layer_1">
            <path id="path3825" d="M138.73,134.63L28.73,134.63C34.539,116.815 51.262,104.683 70,104.69C81.492,104.672 92.53,109.238 100.65,117.37L119.48,98.51C94.515,73.569 54.397,71.208 26.68,93.05C24.511,94.75 22.448,96.58 20.5,98.53C16.665,102.361 13.286,106.623 10.43,111.23C4.013,121.586 0.417,133.444 -0,145.62L0,150.52C0.125,154.213 0.54,157.891 1.24,161.52L111.24,161.52C105.442,179.343 88.721,191.486 69.979,191.486C58.491,191.486 47.461,186.924 39.33,178.81L26.65,191.51L20.5,197.67C33.623,210.794 51.441,218.175 70,218.175C88.559,218.175 106.377,210.794 119.5,197.67C132.488,184.714 139.858,167.145 140,148.8L140,147.35C139.96,143.08 139.535,138.823 138.73,134.63ZM70,148.13L69.84,148.23L69.96,148.11L70.03,148.18L70,148.13Z" style="fill:white;fill-rule:nonzero;"/>
        </g>
    </g>
</svg>
