<svg xmlns="http://www.w3.org/2000/svg" viewBox="0 0 1261.51 339.41">
    <defs>
        <style>.cls-1{fill:none;stroke:#1d1d1b;stroke-miterlimit:10;stroke-width:2px;}</style>
    </defs>
    <title>logoEszköz 3</title>
    <g id="Réteg_2" data-name="Réteg 2">
        <g id="Layer_1" data-name="Layer 1">
            <path class="cls-1" d="M564,1V94.23l-.08-.06a70,70,0,0,0-113.35,52.55v4.77A69.6,69.6,0,0,0,461,185.93,71,71,0,0,0,471,198.61,70,70,0,0,0,563.87,204L564,204a68.51,68.51,0,0,0,6-5.37A70.46,70.46,0,0,0,580,186a69.61,69.61,0,0,0,10.51-36.2V132.43h0V79h.15V1ZM520.51,192.42a43.39,43.39,0,1,1,43.36-44.87c0,.49,0,1,0,1.49s0,1,0,1.49a43.39,43.39,0,0,1-43.36,41.89Z" />
            <rect class="cls-1" x="920.66" y="79.53" width="26.49" height="139.57" />
            <path class="cls-1" d="M1250.08,112.15a70,70,0,0,0-129.59,34.35v5A69.86,69.86,0,0,0,1141,198.61a70.64,70.64,0,0,0,6.15,5.45V151.23c0-.76-.06-1.52-.06-2.29s0-1.52.06-2.28a43.12,43.12,0,0,1,6.41-20.52,43.77,43.77,0,0,1,6.25-7.88,43.38,43.38,0,0,1,61.32,0,43.78,43.78,0,0,1,6.27,7.93,43.06,43.06,0,0,1,6.43,21.28c0,.5,0,1,0,1.49s0,1,0,1.5V219h26.67V148.22A69.63,69.63,0,0,0,1250.08,112.15Z" />
            <path class="cls-1" d="M746,135.63a70,70,0,0,0-138.73,11v4.9a70,70,0,0,0,119.47,47.11L708,179.77A43.39,43.39,0,0,1,636,162.49H746a69.82,69.82,0,0,0,1.28-12.69v-1.45A70.06,70.06,0,0,0,746,135.63Zm-110,0a43.4,43.4,0,0,1,82.52,0Z" />
            <path class="cls-1" d="M1093.4,112.1a71,71,0,0,0-10.12-12.76,71.82,71.82,0,0,0-6.12-5.44,70,70,0,0,0-86.68,0,68.35,68.35,0,0,0-6.18,5.48A69.89,69.89,0,0,0,964.21,141c-.2,1.8-.34,3.61-.4,5.45v4.89a69.67,69.67,0,0,0,10.45,34.45,70.91,70.91,0,0,0,10.07,12.67,70,70,0,0,0,98.95,0,69.91,69.91,0,0,0,20.55-48.83v-1.45A69.66,69.66,0,0,0,1093.4,112.1Zm-59.6,80.19a43.37,43.37,0,0,1-43.32-41.11q-.06-1.12-.06-2.28t.06-2.28a43.38,43.38,0,0,1,86.68.79c0,.5,0,1,0,1.49s0,1,0,1.49a43.29,43.29,0,0,1-6.49,21.4,43.9,43.9,0,0,1-6.22,7.82A43.26,43.26,0,0,1,1033.8,192.29Z" />
            <path class="cls-1" d="M1103.83,268.38a69.89,69.89,0,0,1-20.55,49.55,69.77,69.77,0,0,1-49.48,20.48,69.71,69.71,0,0,1-43.32-15,70.83,70.83,0,0,1-6.15-5.45l6.15-6.16,12.68-12.71a43.37,43.37,0,0,0,74-29.21c0-.5,0-1,0-1.49s0-1,0-1.49a43.25,43.25,0,0,0-12.71-29.21L1077.16,225l6.12-6.13a70.65,70.65,0,0,1,10.12,12.76A69.75,69.75,0,0,1,1103.83,268.38Z" />
            <path class="cls-1" d="M277.15,198.63a70,70,0,0,1-119.47-47.11v-4.9A70,70,0,0,1,277.15,99.51l-18.83,18.86a43.39,43.39,0,1,0,0,61.4Z" />
            <path class="cls-1" d="M413.31,99.48A68.9,68.9,0,0,0,407.17,94a70.06,70.06,0,0,0-86.67,0V1H293.81V87.64l0,0v63.82a69.77,69.77,0,0,0,20.52,47.12,70.51,70.51,0,0,0,6.14,5.45V151.32q-.06-1.14-.06-2.28t.06-2.28a43.13,43.13,0,0,1,6.42-20.53,43.39,43.39,0,0,1,80.25,20.88c0,.64,0,1.28,0,1.93s0,1.29,0,1.93V219.1h26.69V149A69.83,69.83,0,0,0,413.31,99.48Z" />
            <path class="cls-1" d="M139.73,135.63h-110A43.39,43.39,0,0,1,71,105.69a43.22,43.22,0,0,1,30.65,12.68l18.83-18.86a70,70,0,0,0-92.8-5.46,68.35,68.35,0,0,0-6.18,5.48,70.33,70.33,0,0,0-10.07,12.7A69.83,69.83,0,0,0,1,146.62v4.9a70.69,70.69,0,0,0,1.24,11h110a43.39,43.39,0,0,1-71.91,17.29l-12.68,12.7-6.15,6.16a70,70,0,0,0,99,0A69.79,69.79,0,0,0,141,149.8v-1.45A71,71,0,0,0,139.73,135.63ZM71,149.13l-.16.1.12-.12,0,0,0,0,.07.07Z" />
            <circle class="cls-1" cx="933.35" cy="14.33" r="13.33" />
            <path class="cls-1" d="M902.72,135.63h-110a43.68,43.68,0,0,1,4.35-9.37,44.48,44.48,0,0,1,6.25-7.88,43.4,43.4,0,0,1,61.32,0l18.82-18.86a70,70,0,0,0-92.8-5.46,68.23,68.23,0,0,0-6.17,5.48A69.66,69.66,0,0,0,764,146.62v4.9a69.49,69.49,0,0,0,1.24,11h110a43.39,43.39,0,0,1-71.91,17.29l-12.68,12.7-6.15,6.16a70.76,70.76,0,0,0,6.15,5.46,70.06,70.06,0,0,0,92.81-5.47,70.55,70.55,0,0,0,10-12.64A69.79,69.79,0,0,0,904,149.8v-1.45A70.06,70.06,0,0,0,902.72,135.63ZM834,149.13l-.17.1.13-.12,0,0,0,0,.06.07Z" />
        </g>
    </g>
</svg>