<svg xmlns="http://www.w3.org/2000/svg" viewBox="0 0 1259.51 337.41">
    <defs>
        <style>.cls-1{fill:#f8485e}</style>
    </defs>
    <g id="Réteg_2" data-name="Réteg 2">
        <g id="Layer_1" data-name="Layer 1">
            <path class="cls-1" d="M563 0v93.23l-.08-.06a70 70 0 00-113.35 52.55v4.77A69.6 69.6 0 00460 184.93a71 71 0 0010 12.68 70 70 0 0092.87 5.39h.13a68.51 68.51 0 006-5.37A70.46 70.46 0 00579 185a69.61 69.61 0 0010.51-36.2V78h.15V0zm-43.49 191.42a43.39 43.39 0 1143.36-44.87v2.98a43.39 43.39 0 01-43.36 41.89zM919.66 78.53h26.49V218.1h-26.49zm329.42 32.62a70 70 0 00-129.59 34.35v5a69.86 69.86 0 0020.51 47.11 70.64 70.64 0 006.15 5.45v-52.83c0-.76-.06-1.52-.06-2.29s0-1.52.06-2.28a43.12 43.12 0 016.41-20.52 43.77 43.77 0 016.25-7.88 43.38 43.38 0 0161.32 0 43.78 43.78 0 016.27 7.93 43.06 43.06 0 016.43 21.28V218h26.67v-70.78a69.63 69.63 0 00-10.42-36.07zM745 134.63a70 70 0 00-138.73 11v4.9a70 70 0 00119.47 47.11L707 178.77a43.39 43.39 0 01-72-17.28h110a69.82 69.82 0 001.28-12.69v-1.45a70.06 70.06 0 00-1.28-12.72zm-110 0a43.4 43.4 0 0182.52 0zm457.4-23.53a71 71 0 00-10.12-12.76 71.82 71.82 0 00-6.12-5.44 70 70 0 00-86.68 0 68.35 68.35 0 00-6.18 5.48A69.89 69.89 0 00963.21 140c-.2 1.8-.34 3.61-.4 5.45v4.89a69.67 69.67 0 0010.45 34.45 70.91 70.91 0 0010.07 12.67 70 70 0 0098.95 0 69.91 69.91 0 0020.55-48.83v-1.45a69.66 69.66 0 00-10.43-36.08zm-59.6 80.19a43.37 43.37 0 01-43.32-41.11q-.06-1.12-.06-2.28t.06-2.28a43.38 43.38 0 0186.68.79v2.98a43.29 43.29 0 01-6.49 21.4 43.9 43.9 0 01-6.22 7.82 43.26 43.26 0 01-30.65 12.68zm70.03 76.09a69.89 69.89 0 01-20.55 49.55 69.77 69.77 0 01-49.48 20.48 69.71 69.71 0 01-43.32-15 70.83 70.83 0 01-6.15-5.45l6.15-6.16 12.68-12.71a43.37 43.37 0 0074-29.21v-2.98a43.25 43.25 0 00-12.71-29.21l12.71-12.69 6.12-6.13a70.65 70.65 0 0110.12 12.76 69.75 69.75 0 0110.43 36.75z" />
            <path d="M276.15 197.63a70 70 0 01-119.47-47.11v-4.9a70 70 0 01119.47-47.11l-18.83 18.86a43.39 43.39 0 100 61.4zm136.16-99.15a68.9 68.9 0 00-6.14-5.48 70.06 70.06 0 00-86.67 0V0h-26.69v150.46a69.77 69.77 0 0020.52 47.12 70.51 70.51 0 006.14 5.45v-52.71q-.06-1.14-.06-2.28t.06-2.28a43.13 43.13 0 016.42-20.53 43.39 43.39 0 0180.25 20.88v71.99h26.69V148a69.83 69.83 0 00-20.52-49.52zm-273.58 36.15h-110A43.39 43.39 0 0170 104.69a43.22 43.22 0 0130.65 12.68l18.83-18.86a70 70 0 00-92.8-5.46 68.35 68.35 0 00-6.18 5.48 70.33 70.33 0 00-10.07 12.7A69.83 69.83 0 000 145.62v4.9a70.69 70.69 0 001.24 11h110a43.39 43.39 0 01-71.91 17.29l-12.68 12.7-6.15 6.16a70 70 0 0099 0A69.79 69.79 0 00140 148.8v-1.45a71 71 0 00-1.27-12.72zM70 148.13l-.16.1.12-.12.07.07z" fill="#3d3d3d" />
            <circle class="cls-1" cx="932.35" cy="13.33" r="13.33" />
            <path class="cls-1" d="M901.72 134.63h-110a43.68 43.68 0 014.35-9.37 44.48 44.48 0 016.25-7.88 43.4 43.4 0 0161.32 0l18.82-18.86a70 70 0 00-92.8-5.46 68.23 68.23 0 00-6.17 5.48A69.66 69.66 0 00763 145.62v4.9a69.49 69.49 0 001.24 11h110a43.39 43.39 0 01-71.91 17.29l-12.68 12.7-6.15 6.16a70.76 70.76 0 006.15 5.46 70.06 70.06 0 0092.81-5.47 70.55 70.55 0 0010-12.64A69.79 69.79 0 00903 148.8v-1.45a70.06 70.06 0 00-1.28-12.72zM833 148.13l-.17.1.13-.12.06.07z" />
        </g>
    </g>
</svg>